<?xml version="1.0" encoding="utf-8"?>
<!-- Generator: Adobe Illustrator 17.1.0, SVG Export Plug-In . SVG Version: 6.00 Build 0)  -->
<!DOCTYPE svg PUBLIC "-//W3C//DTD SVG 1.1//EN" "http://www.w3.org/Graphics/SVG/1.1/DTD/svg11.dtd">
<svg version="1.1" id="Layer_1" xmlns="http://www.w3.org/2000/svg" xmlns:xlink="http://www.w3.org/1999/xlink" x="0px" y="0px"
	 viewBox="0 0 32 32" enable-background="new 0 0 32 32" xml:space="preserve">
<g id="Layer_2" display="none">
	<rect x="-404.6" y="-474" display="inline" fill="#231F20" width="578" height="1198"/>
</g>
<g id="Layer_1_1_">
	<g>
		<path fill="#FFFFFF" d="M14.2,29.2c-2.6,0-4.6-2.1-4.6-4.6V7.5c0-2.6,2.1-4.6,4.6-4.6c2.6,0,4.6,2.1,4.6,4.6v17.1
			C18.8,27.1,16.8,29.2,14.2,29.2z M14.2,3.8c-2,0-3.6,1.6-3.6,3.6v17.1c0,2,1.6,3.6,3.6,3.6s3.6-1.6,3.6-3.6V7.5
			C17.8,5.5,16.2,3.8,14.2,3.8z"/>
		<g>
			<rect x="12.1" y="19" fill="#FFFFFF" width="4.1" height="1"/>
			<rect x="13.7" y="17.4" fill="#FFFFFF" width="1" height="4.1"/>
		</g>
		<g>
			<path fill="#FFFFFF" d="M28.3,21l-1.4-0.4c-0.2-0.1-5.3-1.5-9-5.1l0.7-0.7c2.4,2.3,5.4,3.6,7.1,4.3L18.1,8.8l0.5-0.9L28.3,21z"/>
		</g>
		<path fill="#FFFFFF" d="M9.7,22.8l-5.9-7.4c-0.2-0.2-0.1-0.5,0-0.7l1.5-1.6C5.4,13,5.6,13,5.7,13C5.9,13,6,13,6.1,13.1l4.5,5.1
			l-0.8,0.7l-4.1-4.7l-0.8,0.9l5.6,7L9.7,22.8z"/>
	</g>
</g>
<g id="Layer_7" display="none">
	<g display="inline">
		<polygon points="10.2,8.2 9.5,7.5 1,16 9.5,24.5 10.2,23.8 2.4,16 		"/>
		<path d="M22.1,16l-5.4-5.4l2.4-2.4l-0.7-0.7L16,9.9l-2.4-2.4l-0.7,0.7l2.4,2.4L9.9,16l5.4,5.4l-2.4,2.4l0.7,0.7l2.4-2.4l2.4,2.4
			l0.7-0.7l-2.4-2.4L22.1,16z M11.3,16l4.7-4.7l4.7,4.7L16,20.7L11.3,16z"/>
		<polygon points="22.5,7.5 21.8,8.2 29.6,16 21.8,23.8 22.5,24.5 31,16 		"/>
	</g>
</g>
<g id="Layer_6" display="none">
	<g display="inline">
		<path d="M12.4,4.6h-0.9H12.4L12.4,4.6L12.4,4.6l-1,0v0c0,4.2-4.4,11.8-8.6,11.8v1c4.4,0,8.6,7.3,8.6,11.5h1
			c0-4.2,4.3-11.5,8.6-11.5v-1C16.7,16.4,12.4,8.8,12.4,4.6z M11.9,25.9c-1.1-3.6-3.8-7.6-6.9-9c3.1-1.4,5.8-5.5,6.9-9.2
			c1.1,3.7,3.8,7.8,6.9,9.2C15.7,18.3,12.9,22.3,11.9,25.9z"/>
		<polygon points="29.3,7 25.4,7 25.4,3.1 24.4,3.1 24.4,7 20.4,7 20.4,8 24.4,8 24.4,12 25.4,12 25.4,8 29.3,8 		"/>
	</g>
</g>
<g id="Layer_5" display="none">
	<g display="inline">
		<polygon points="26.7,21.8 26.4,20.8 16,24.5 5.6,20.8 5.3,21.8 14.5,25.1 5.3,28.4 5.6,29.3 16,25.6 26.4,29.3 26.7,28.4 
			17.5,25.1 		"/>
		<path d="M13.7,19.9l0.1,0c0.3,0,0.7,0,1-1.9c1,1.9,1.4,1.9,1.6,1.9l0.1,0c2-0.3,4.5-1.4,5.2-3.6c0.5-1.4,0-2.9-0.4-4.3
			c-0.1-0.2-0.1-0.4-0.2-0.6c-0.3-1-0.6-2-0.9-3l-0.4-1.2l-1.9,4l-4.8-8.5v1.9c0,3.5-0.5,5.6-2.3,8.6c-0.8,1.4-0.9,3-0.4,4.3
			C11,18.7,12.2,19.5,13.7,19.9z M11.7,13.7c1.5-2.6,2.2-4.6,2.3-7.3l4,7l1.6-3.5c0.2,0.6,0.3,1.1,0.5,1.7c0.1,0.2,0.1,0.4,0.2,0.7
			c0.4,1.2,0.8,2.6,0.4,3.7c-0.6,1.7-2.6,2.6-4.2,2.9c-0.3-0.4-1-1.7-1.6-2.8l-0.8-1.6L14,16.3c-0.1,0.9-0.2,2.1-0.4,2.5
			c-1-0.3-1.8-0.9-2.2-1.7C10.9,16.1,11.1,14.9,11.7,13.7z"/>
	</g>
</g>
<g id="Layer_4" display="none">
	<g display="inline">
		<path d="M16,3.2C9,3.2,3.2,9,3.2,16S9,28.8,16,28.8S28.8,23,28.8,16S23,3.2,16,3.2z M16,27.8C9.5,27.8,4.2,22.5,4.2,16
			S9.5,4.2,16,4.2S27.8,9.5,27.8,16C27.8,22.5,22.5,27.8,16,27.8z"/>
		<path d="M13.4,14.5l0,0.2l-0.2,0.1l-1.2,8l0.9,0.4l5.7-5.8l0-0.2l0.2-0.1l1.2-8l-0.9-0.4L13.4,14.5z M14.1,15.6l3.3,1.6l-4.1,4.2
			L14.1,15.6z M17.9,16.4l-3.3-1.6l4.1-4.2L17.9,16.4z"/>
	</g>
</g>
<g id="Layer_3" display="none">
	<polygon display="inline" points="27.4,5.3 26.7,4.6 16,15.3 5.3,4.6 4.6,5.3 15.3,16 4.6,26.7 5.3,27.4 16,16.7 26.7,27.4 
		27.4,26.7 16.7,16 	"/>
</g>
</svg>
