<?xml version="1.0" encoding="utf-8"?>
<!-- Generator: Adobe Illustrator 17.1.0, SVG Export Plug-In . SVG Version: 6.00 Build 0)  -->
<!DOCTYPE svg PUBLIC "-//W3C//DTD SVG 1.1//EN" "http://www.w3.org/Graphics/SVG/1.1/DTD/svg11.dtd">
<svg version="1.1" id="Layer_1" xmlns="http://www.w3.org/2000/svg" xmlns:xlink="http://www.w3.org/1999/xlink" x="0px" y="0px"
	 viewBox="0 0 32 40" enable-background="new 0 0 32 40" xml:space="preserve">
<g id="bg" display="none">
	<rect y="4" display="inline" fill="#29B287" width="32" height="32"/>
</g>
<g id="Layer_2" display="none">
	<rect x="-404.6" y="-470" display="inline" fill="#231F20" width="578" height="1198"/>
</g>
<g id="Layer_1_1_" display="none">
	<g display="inline">
		<path d="M14.2,33.2c-2.6,0-4.6-2.1-4.6-4.6V11.5c0-2.6,2.1-4.6,4.6-4.6s4.6,2.1,4.6,4.6v17.1C18.8,31.1,16.8,33.2,14.2,33.2z
			 M14.2,7.8c-2,0-3.6,1.6-3.6,3.6v17.1c0,2,1.6,3.6,3.6,3.6s3.6-1.6,3.6-3.6v-17C17.8,9.5,16.2,7.8,14.2,7.8z"/>
		<g>
			<rect x="12.1" y="23" width="4.1" height="1"/>
			<rect x="13.7" y="21.4" width="1" height="4.1"/>
		</g>
		<g>
			<path d="M28.3,25l-1.4-0.4c-0.2-0.1-5.3-1.5-9-5.1l0.7-0.7c2.4,2.3,5.4,3.6,7.1,4.3l-7.6-10.3l0.5-0.9L28.3,25z"/>
		</g>
		<path d="M9.7,26.8l-5.9-7.4c-0.2-0.2-0.1-0.5,0-0.7l1.5-1.6C5.4,17,5.6,17,5.7,17c0.2,0,0.3,0,0.4,0.1l4.5,5.1l-0.8,0.7l-4.1-4.7
			l-0.8,0.9l5.6,7L9.7,26.8z"/>
	</g>
</g>
<g id="Layer_7" display="none">
	<g display="inline">
		<polygon points="10.2,12.2 9.5,11.5 1,20 9.5,28.5 10.2,27.8 2.4,20 		"/>
		<path d="M22.1,20l-5.4-5.4l2.4-2.4l-0.7-0.7L16,13.9l-2.4-2.4l-0.7,0.7l2.4,2.4L9.9,20l5.4,5.4l-2.4,2.4l0.7,0.7l2.4-2.4l2.4,2.4
			l0.7-0.7l-2.4-2.4L22.1,20z M11.3,20l4.7-4.7l4.7,4.7L16,24.7L11.3,20z"/>
		<polygon points="22.5,11.5 21.8,12.2 29.6,20 21.8,27.8 22.5,28.5 31,20 		"/>
	</g>
</g>
<g id="Layer_6" display="none">
	<g display="inline">
		<path d="M12.4,8.6h-0.9H12.4L12.4,8.6L12.4,8.6h-1l0,0c0,4.2-4.4,11.8-8.6,11.8v1c4.4,0,8.6,7.3,8.6,11.5h1
			c0-4.2,4.3-11.5,8.6-11.5v-1C16.7,20.4,12.4,12.8,12.4,8.6z M11.9,29.9c-1.1-3.6-3.8-7.6-6.9-9c3.1-1.4,5.8-5.5,6.9-9.2
			c1.1,3.7,3.8,7.8,6.9,9.2C15.7,22.3,12.9,26.3,11.9,29.9z"/>
		<polygon points="29.3,11 25.4,11 25.4,7.1 24.4,7.1 24.4,11 20.4,11 20.4,12 24.4,12 24.4,16 25.4,16 25.4,12 29.3,12 		"/>
	</g>
</g>
<g id="Layer_5" display="none">
	<g display="inline">
		<polygon points="26.7,25.8 26.4,24.8 16,28.5 5.6,24.8 5.3,25.8 14.5,29.1 5.3,32.4 5.6,33.3 16,29.6 26.4,33.3 26.7,32.4 
			17.5,29.1 		"/>
		<path d="M13.7,23.9h0.1c0.3,0,0.7,0,1-1.9c1,1.9,1.4,1.9,1.6,1.9h0.1c2-0.3,4.5-1.4,5.2-3.6c0.5-1.4,0-2.9-0.4-4.3
			c-0.1-0.2-0.1-0.4-0.2-0.6c-0.3-1-0.6-2-0.9-3l-0.4-1.2l-1.9,4l-4.8-8.5v1.9c0,3.5-0.5,5.6-2.3,8.6c-0.8,1.4-0.9,3-0.4,4.3
			C11,22.7,12.2,23.5,13.7,23.9z M11.7,17.7c1.5-2.6,2.2-4.6,2.3-7.3l4,7l1.6-3.5c0.2,0.6,0.3,1.1,0.5,1.7c0.1,0.2,0.1,0.4,0.2,0.7
			c0.4,1.2,0.8,2.6,0.4,3.7c-0.6,1.7-2.6,2.6-4.2,2.9c-0.3-0.4-1-1.7-1.6-2.8l-0.8-1.6L14,20.3c-0.1,0.9-0.2,2.1-0.4,2.5
			c-1-0.3-1.8-0.9-2.2-1.7C10.9,20.1,11.1,18.9,11.7,17.7z"/>
	</g>
</g>
<g id="Layer_4">
	<g>
		<path fill="#FFFFFF" d="M16,7.2C9,7.2,3.2,13,3.2,20S9,32.8,16,32.8S28.8,27,28.8,20S23,7.2,16,7.2z M16,31.8
			C9.5,31.8,4.2,26.5,4.2,20S9.5,8.2,16,8.2S27.8,13.5,27.8,20S22.5,31.8,16,31.8z"/>
		<path fill="#FFFFFF" d="M13.4,18.5v0.2l-0.2,0.1l-1.2,8l0.9,0.4l5.7-5.8v-0.2l0.2-0.1l1.2-8l-0.9-0.4L13.4,18.5z M14.1,19.6
			l3.3,1.6l-4.1,4.2L14.1,19.6z M17.9,20.4l-3.3-1.6l4.1-4.2L17.9,20.4z"/>
	</g>
</g>
<g id="Layer_3" display="none">
	<polygon display="inline" points="27.4,9.3 26.7,8.6 16,19.3 5.3,8.6 4.6,9.3 15.3,20 4.6,30.7 5.3,31.4 16,20.7 26.7,31.4 
		27.4,30.7 16.7,20 	"/>
</g>
</svg>
